# xmcd CD database file
#
# Track frame offsets:
#	150
#	13919
#	26750
#	40734
#	52611
#	64262
#	75702
#	88954
#	100586
#	114700
#	127651
#	140189
#	151930
#	164396
#	177540
#	190667
#	204258
#	216351
#	227134
#	238285
#	250511
#	261379
#	273171
#	285928
#
# Disc length: 3961 seconds
#
# Revision: 0
# Processed by: cddbd v1.4PL0 Copyright (c) Steve Scherf et al.
# Submitted via: CDex 1.50
#
DISCID=4f0f7718
DTITLE=Jimmy Witherspoon - Ain't Nobody's Business
DYEAR=1900
DGENRE=Blues
TTITLE0=Shipyard Woman Blues
TTITLE1=Ernestine
TTITLE2=Roll On Katy
TTITLE3=Voodoo Woman Blues
TTITLE4=I Want a Little Girl
TTITLE5=Bar Fly Blues
TTITLE6=Please Stop Playing These Blues Boy
TTITLE7=All My Geets Are Gone
TTITLE8=Strange Woman Blues
TTITLE9=Wandering Gal Blues
TTITLE10=Hey Mr.Landlord (Landlord Blues)
TTITLE11=Third Floor Blues
TTITLE12=Money's Getting Cheaper (Times Gettin' Tougher Tough)
TTITLE13=Skid Row Blues
TTITLE14=Ain't Nobody's Business, Pt.1
TTITLE15=Ain't Nobody's Business, Pt.2
TTITLE16=Spoon Calls Hootie
TTITLE17=Call My Baby
TTITLE18=The New Look
TTITLE19=Big Heart
TTITLE20=Funny Style Baby
TTITLE21=Lush Head Woman
TTITLE22=Long About Dawn
TTITLE23=Miss Candy B
EXTD=
EXTT0=
EXTT1=
EXTT2=
EXTT3=
EXTT4=
EXTT5=
EXTT6=
EXTT7=
EXTT8=
EXTT9=
EXTT10=
EXTT11=
EXTT12=
EXTT13=
EXTT14=
EXTT15=
EXTT16=
EXTT17=
EXTT18=
EXTT19=
EXTT20=
EXTT21=
EXTT22=
EXTT23=
PLAYORDER=
